<svg width="32" height="32" viewBox="0 0 32 32" xmlns="http://www.w3.org/2000/svg">
    <!-- Star powerup -->
    <!-- Outer star -->
    <polygon points="16,2 19.5,11 29,11 22.25,17 25.75,26 16,21 6.25,26 9.75,17 3,11 12.5,11"
        fill="#FFD700" />

    <!-- Inner star -->
    <polygon
        points="16,6 18.5,12.5 25,12.5 20.25,16.5 22.75,23 16,19 9.25,23 11.75,16.5 7,12.5 13.5,12.5"
        fill="#FFFF00" />

    <!-- Core -->
    <circle cx="16" cy="16" r="4" fill="#FFFFFF" />
    <circle cx="16" cy="16" r="2.5" fill="#FFD700" />

    <!-- Sparkle effects -->
    <polygon points="8,8 9,9 10,9 9.5,10 10,11 8,10 6,11 6.5,10 6,9 7,9" fill="#FFFFFF"
        opacity="0.8" />
    <polygon points="24,6 25,7 26,7 25.5,8 26,9 24,8 22,9 22.5,8 22,7 23,7" fill="#FFFFFF"
        opacity="0.8" />
    <polygon points="26,22 27,23 28,23 27.5,24 28,25 26,24 24,25 24.5,24 24,23 25,23" fill="#FFFFFF"
        opacity="0.8" />
    <polygon points="6,24 7,25 8,25 7.5,26 8,27 6,26 4,27 4.5,26 4,25 5,25" fill="#FFFFFF"
        opacity="0.8" />
</svg>