<svg width="32" height="32" viewBox="0 0 32 32" xmlns="http://www.w3.org/2000/svg">
    <!-- Background base -->
    <rect width="32" height="32" fill="#8B4513" />

    <!-- Main brick color -->
    <rect x="1" y="1" width="30" height="30" fill="#D2691E" />

    <!-- Top highlight -->
    <rect x="1" y="1" width="30" height="3" fill="#F4A460" />

    <!-- Left highlight -->
    <rect x="1" y="1" width="3" height="30" fill="#F4A460" />

    <!-- Bottom shadow -->
    <rect x="1" y="28" width="30" height="3" fill="#8B4513" />

    <!-- Right shadow -->
    <rect x="28" y="1" width="3" height="30" fill="#8B4513" />

    <!-- Inner brick details -->
    <!-- Horizontal mortar lines -->
    <rect x="4" y="8" width="24" height="1" fill="#A0522D" />
    <rect x="4" y="16" width="24" height="1" fill="#A0522D" />
    <rect x="4" y="24" width="24" height="1" fill="#A0522D" />

    <!-- Vertical mortar lines (offset pattern) -->
    <rect x="16" y="4" width="1" height="4" fill="#A0522D" />
    <rect x="8" y="9" width="1" height="7" fill="#A0522D" />
    <rect x="20" y="9" width="1" height="7" fill="#A0522D" />
    <rect x="12" y="17" width="1" height="7" fill="#A0522D" />
    <rect x="24" y="17" width="1" height="7" fill="#A0522D" />
    <rect x="16" y="25" width="1" height="3" fill="#A0522D" />

    <!-- Additional texture details -->
    <rect x="6" y="5" width="1" height="1" fill="#CD853F" />
    <rect x="10" y="6" width="1" height="1" fill="#CD853F" />
    <rect x="22" y="5" width="1" height="1" fill="#CD853F" />
    <rect x="26" y="6" width="1" height="1" fill="#CD853F" />

    <rect x="5" y="11" width="1" height="1" fill="#CD853F" />
    <rect x="13" y="12" width="1" height="1" fill="#CD853F" />
    <rect x="18" y="11" width="1" height="1" fill="#CD853F" />
    <rect x="25" y="13" width="1" height="1" fill="#CD853F" />

    <rect x="7" y="19" width="1" height="1" fill="#CD853F" />
    <rect x="15" y="20" width="1" height="1" fill="#CD853F" />
    <rect x="21" y="19" width="1" height="1" fill="#CD853F" />
    <rect x="27" y="21" width="1" height="1" fill="#CD853F" />

    <rect x="9" y="27" width="1" height="1" fill="#CD853F" />
    <rect x="19" y="26" width="1" height="1" fill="#CD853F" />
    <rect x="23" y="27" width="1" height="1" fill="#CD853F" />
</svg>