<svg width="32" height="32" viewBox="0 0 32 32" xmlns="http://www.w3.org/2000/svg">
    <!-- Speed boost powerup -->
    <!-- Lightning bolt body -->
    <polygon points="18,2 12,14 16,14 14,30 20,18 16,18" fill="#00BFFF" />
    <polygon points="17.5,3 12.5,13.5 15.5,13.5 14.5,28 19.5,18.5 16.5,18.5" fill="#87CEEB" />
    <polygon points="17,4 13,13 15,13 15,26 19,19 17,19" fill="#FFFFFF" />

    <!-- Speed lines -->
    <rect x="4" y="8" width="6" height="1" fill="#00BFFF" opacity="0.7" />
    <rect x="3" y="10" width="7" height="1" fill="#00BFFF" opacity="0.7" />
    <rect x="4" y="12" width="6" height="1" fill="#00BFFF" opacity="0.7" />

    <rect x="22" y="18" width="6" height="1" fill="#00BFFF" opacity="0.7" />
    <rect x="21" y="20" width="7" height="1" fill="#00BFFF" opacity="0.7" />
    <rect x="22" y="22" width="6" height="1" fill="#00BFFF" opacity="0.7" />

    <!-- Motion blur effect -->
    <polygon points="18,2 12,14 16,14 14,30 20,18 16,18" fill="#ADD8E6" opacity="0.3"
        transform="translate(1,0)" />
    <polygon points="18,2 12,14 16,14 14,30 20,18 16,18" fill="#ADD8E6" opacity="0.2"
        transform="translate(2,0)" />
</svg>