<svg width="32" height="32" viewBox="0 0 32 32" xmlns="http://www.w3.org/2000/svg">
    <!-- Coin outer ring -->
    <rect x="8" y="6" width="16" height="20" fill="#DAA520" />
    <rect x="6" y="8" width="20" height="16" fill="#DAA520" />
    <rect x="10" y="4" width="12" height="2" fill="#DAA520" />
    <rect x="10" y="26" width="12" height="2" fill="#DAA520" />
    <rect x="4" y="10" width="2" height="12" fill="#DAA520" />
    <rect x="26" y="10" width="2" height="12" fill="#DAA520" />

    <!-- Coin main body -->
    <rect x="8" y="7" width="16" height="18" fill="#FFD700" />
    <rect x="7" y="9" width="18" height="14" fill="#FFD700" />
    <rect x="10" y="5" width="12" height="2" fill="#FFD700" />
    <rect x="10" y="25" width="12" height="2" fill="#FFD700" />
    <rect x="5" y="10" width="2" height="12" fill="#FFD700" />
    <rect x="25" y="10" width="2" height="12" fill="#FFD700" />

    <!-- Top highlights -->
    <rect x="8" y="7" width="16" height="1" fill="#FFFF99" />
    <rect x="7" y="9" width="18" height="1" fill="#FFFF99" />
    <rect x="10" y="5" width="12" height="1" fill="#FFFF99" />
    <rect x="5" y="10" width="2" height="1" fill="#FFFF99" />
    <rect x="25" y="10" width="2" height="1" fill="#FFFF99" />

    <!-- Left highlights -->
    <rect x="8" y="7" width="1" height="18" fill="#FFFF99" />
    <rect x="7" y="9" width="1" height="14" fill="#FFFF99" />
    <rect x="10" y="5" width="1" height="2" fill="#FFFF99" />
    <rect x="5" y="10" width="1" height="12" fill="#FFFF99" />

    <!-- Bottom shadows -->
    <rect x="8" y="24" width="16" height="1" fill="#B8860B" />
    <rect x="7" y="22" width="18" height="1" fill="#B8860B" />
    <rect x="10" y="26" width="12" height="1" fill="#B8860B" />
    <rect x="5" y="21" width="2" height="1" fill="#B8860B" />
    <rect x="25" y="21" width="2" height="1" fill="#B8860B" />

    <!-- Right shadows -->
    <rect x="23" y="7" width="1" height="18" fill="#B8860B" />
    <rect x="24" y="9" width="1" height="14" fill="#B8860B" />
    <rect x="21" y="5" width="1" height="2" fill="#B8860B" />
    <rect x="26" y="10" width="1" height="12" fill="#B8860B" />

    <!-- Star symbol in center -->
    <!-- Star center -->
    <rect x="15" y="15" width="2" height="2" fill="#FFA500" />

    <!-- Star points -->
    <rect x="16" y="12" width="1" height="3" fill="#FFA500" />
    <rect x="16" y="17" width="1" height="3" fill="#FFA500" />
    <rect x="13" y="16" width="3" height="1" fill="#FFA500" />
    <rect x="17" y="16" width="3" height="1" fill="#FFA500" />

    <!-- Star diagonal points -->
    <rect x="14" y="13" width="1" height="1" fill="#FFA500" />
    <rect x="17" y="13" width="1" height="1" fill="#FFA500" />
    <rect x="14" y="18" width="1" height="1" fill="#FFA500" />
    <rect x="17" y="18" width="1" height="1" fill="#FFA500" />

    <!-- Additional star details -->
    <rect x="15" y="11" width="2" height="1" fill="#FF8C00" />
    <rect x="15" y="20" width="2" height="1" fill="#FF8C00" />
    <rect x="12" y="15" width="1" height="2" fill="#FF8C00" />
    <rect x="19" y="15" width="1" height="2" fill="#FF8C00" />

    <!-- Inner coin details -->
    <rect x="10" y="10" width="1" height="1" fill="#FFFF66" />
    <rect x="21" y="10" width="1" height="1" fill="#FFFF66" />
    <rect x="10" y="21" width="1" height="1" fill="#FFFF66" />
    <rect x="21" y="21" width="1" height="1" fill="#FFFF66" />

    <!-- Outer rim details -->
    <rect x="12" y="8" width="1" height="1" fill="#DAA520" />
    <rect x="19" y="8" width="1" height="1" fill="#DAA520" />
    <rect x="12" y="23" width="1" height="1" fill="#DAA520" />
    <rect x="19" y="23" width="1" height="1" fill="#DAA520" />
    <rect x="8" y="12" width="1" height="1" fill="#DAA520" />
    <rect x="23" y="12" width="1" height="1" fill="#DAA520" />
    <rect x="8" y="19" width="1" height="1" fill="#DAA520" />
    <rect x="23" y="19" width="1" height="1" fill="#DAA520" />
</svg>