<svg width="32" height="32" viewBox="0 0 32 32" xmlns="http://www.w3.org/2000/svg">
    <!-- Ruby coin -->
    <circle cx="16" cy="16" r="15" fill="#E0115F" stroke="#8B0000" stroke-width="1" />
    <circle cx="16" cy="16" r="12" fill="#FF1493" opacity="0.8" />
    <circle cx="16" cy="16" r="8" fill="#FF69B4" opacity="0.6" />

    <!-- Shine effect -->
    <ellipse cx="12" cy="10" rx="3" ry="5" fill="#FFB6C1" opacity="0.8" />
    <circle cx="11" cy="9" r="1.5" fill="#FFFFFF" opacity="1" />

    <!-- Diamond sparkles -->
    <polygon points="16,6 17,8 19,8 17.5,9.5 18,12 16,10.5 14,12 14.5,9.5 13,8 15,8" fill="#FFFFFF"
        opacity="0.7" />
    <polygon points="22,12 23,13 24,13 23.5,14 24,15 22,14 20,15 20.5,14 20,13 21,13" fill="#FFFFFF"
        opacity="0.5" />

    <!-- Value text -->
    <text x="16" y="22" text-anchor="middle" font-family="Arial" font-size="7" font-weight="bold"
        fill="#FFFFFF">25</text>
</svg>