<svg width="32" height="32" viewBox="0 0 32 32" xmlns="http://www.w3.org/2000/svg">
    <!-- Character base (transparent background) - Walking Frame 2 (Mid-stride) -->

    <!-- Hat -->
    <rect x="8" y="3" width="16" height="4" fill="#FF0000" /> <!-- Slightly bouncing -->
    <rect x="6" y="5" width="20" height="2" fill="#FF0000" />
    <rect x="10" y="1" width="12" height="2" fill="#FF0000" />

    <!-- Hat highlight -->
    <rect x="8" y="3" width="16" height="1" fill="#FF6666" />
    <rect x="10" y="1" width="12" height="1" fill="#FF6666" />

    <!-- Face/Head -->
    <rect x="8" y="7" width="16" height="10" fill="#FFDBAC" />
    <rect x="10" y="5" width="12" height="2" fill="#FFDBAC" />

    <!-- Face highlights -->
    <rect x="8" y="7" width="16" height="1" fill="#FFE4B5" />
    <rect x="8" y="7" width="1" height="10" fill="#FFE4B5" />

    <!-- Eyes (facing right) -->
    <rect x="13" y="9" width="2" height="2" fill="#000000" />
    <rect x="19" y="9" width="2" height="2" fill="#000000" />

    <!-- Eye highlights -->
    <rect x="14" y="9" width="1" height="1" fill="#FFFFFF" />
    <rect x="20" y="9" width="1" height="1" fill="#FFFFFF" />

    <!-- Nose (facing right) -->
    <rect x="17" y="11" width="2" height="2" fill="#FFB87A" />

    <!-- Mustache (facing right) -->
    <rect x="14" y="13" width="8" height="2" fill="#8B4513" />
    <rect x="12" y="14" width="10" height="1" fill="#8B4513" />

    <!-- Shirt/Overalls -->
    <rect x="10" y="17" width="12" height="10" fill="#0066CC" />
    <rect x="8" y="19" width="16" height="8" fill="#0066CC" />

    <!-- Shirt highlights -->
    <rect x="10" y="17" width="12" height="1" fill="#3399FF" />
    <rect x="8" y="19" width="1" height="8" fill="#3399FF" />

    <!-- Overalls straps -->
    <rect x="12" y="17" width="2" height="4" fill="#004499" />
    <rect x="18" y="17" width="2" height="4" fill="#004499" />

    <!-- Buttons -->
    <rect x="13" y="18" width="1" height="1" fill="#FFFF00" />
    <rect x="19" y="18" width="1" height="1" fill="#FFFF00" />

    <!-- Arms (walking pose - both at sides) -->
    <rect x="6" y="20" width="2" height="6" fill="#FFDBAC" />
    <rect x="24" y="20" width="2" height="6" fill="#FFDBAC" />

    <!-- Gloves -->
    <rect x="4" y="24" width="4" height="4" fill="#FFFFFF" />
    <rect x="24" y="24" width="4" height="4" fill="#FFFFFF" />

    <!-- Glove highlights -->
    <rect x="4" y="24" width="4" height="1" fill="#F0F0F0" />
    <rect x="24" y="24" width="4" height="1" fill="#F0F0F0" />

    <!-- Legs (walking pose - both legs under body) -->
    <rect x="13" y="27" width="3" height="4" fill="#0066CC" />
    <rect x="16" y="27" width="3" height="4" fill="#0066CC" />

    <!-- Shoes -->
    <rect x="11" y="29" width="6" height="2" fill="#8B4513" />
    <rect x="15" y="29" width="6" height="2" fill="#8B4513" />

    <!-- Shoe highlights -->
    <rect x="11" y="29" width="6" height="1" fill="#CD853F" />
    <rect x="15" y="29" width="6" height="1" fill="#CD853F" />

    <!-- Hair (visible under hat, facing right) -->
    <rect x="9" y="6" width="2" height="1" fill="#8B4513" />
    <rect x="22" y="6" width="2" height="1" fill="#8B4513" />

    <!-- Face shadow (right side) -->
    <rect x="23" y="8" width="1" height="8" fill="#E6C199" />
    <rect x="8" y="16" width="16" height="1" fill="#E6C199" />
</svg>