<svg width="32" height="32" viewBox="0 0 32 32" xmlns="http://www.w3.org/2000/svg">
    <!-- Character base (transparent background) - Walking Frame 1 (Right foot forward) -->

    <!-- Hat -->
    <rect x="8" y="4" width="16" height="4" fill="#FF0000" />
    <rect x="6" y="6" width="20" height="2" fill="#FF0000" />
    <rect x="10" y="2" width="12" height="2" fill="#FF0000" />

    <!-- Hat highlight -->
    <rect x="8" y="4" width="16" height="1" fill="#FF6666" />
    <rect x="10" y="2" width="12" height="1" fill="#FF6666" />

    <!-- Face/Head -->
    <rect x="8" y="8" width="16" height="10" fill="#FFDBAC" />
    <rect x="10" y="6" width="12" height="2" fill="#FFDBAC" />

    <!-- Face highlights -->
    <rect x="8" y="8" width="16" height="1" fill="#FFE4B5" />
    <rect x="8" y="8" width="1" height="10" fill="#FFE4B5" />

    <!-- Eyes (facing right) -->
    <rect x="13" y="10" width="2" height="2" fill="#000000" />
    <rect x="19" y="10" width="2" height="2" fill="#000000" />

    <!-- Eye highlights -->
    <rect x="14" y="10" width="1" height="1" fill="#FFFFFF" />
    <rect x="20" y="10" width="1" height="1" fill="#FFFFFF" />

    <!-- Nose (facing right) -->
    <rect x="17" y="12" width="2" height="2" fill="#FFB87A" />

    <!-- Mustache (facing right) -->
    <rect x="14" y="14" width="8" height="2" fill="#8B4513" />
    <rect x="12" y="15" width="10" height="1" fill="#8B4513" />

    <!-- Shirt/Overalls -->
    <rect x="10" y="18" width="12" height="10" fill="#0066CC" />
    <rect x="8" y="20" width="16" height="8" fill="#0066CC" />

    <!-- Shirt highlights -->
    <rect x="10" y="18" width="12" height="1" fill="#3399FF" />
    <rect x="8" y="20" width="1" height="8" fill="#3399FF" />

    <!-- Overalls straps -->
    <rect x="12" y="18" width="2" height="4" fill="#004499" />
    <rect x="18" y="18" width="2" height="4" fill="#004499" />

    <!-- Buttons -->
    <rect x="13" y="19" width="1" height="1" fill="#FFFF00" />
    <rect x="19" y="19" width="1" height="1" fill="#FFFF00" />

    <!-- Arms (walking pose - swinging) -->
    <rect x="5" y="19" width="2" height="6" fill="#FFDBAC" /> <!-- Left arm back -->
    <rect x="25" y="21" width="2" height="6" fill="#FFDBAC" /> <!-- Right arm forward -->

    <!-- Gloves -->
    <rect x="3" y="23" width="4" height="4" fill="#FFFFFF" />
    <rect x="25" y="25" width="4" height="4" fill="#FFFFFF" />

    <!-- Glove highlights -->
    <rect x="3" y="23" width="4" height="1" fill="#F0F0F0" />
    <rect x="25" y="25" width="4" height="1" fill="#F0F0F0" />

    <!-- Legs (walking pose - right leg forward) -->
    <rect x="11" y="28" width="3" height="4" fill="#0066CC" /> <!-- Left leg back -->
    <rect x="18" y="27" width="3" height="5" fill="#0066CC" /> <!-- Right leg forward -->

    <!-- Shoes -->
    <rect x="9" y="30" width="6" height="2" fill="#8B4513" /> <!-- Left shoe back -->
    <rect x="17" y="30" width="6" height="2" fill="#8B4513" /> <!-- Right shoe forward -->

    <!-- Shoe highlights -->
    <rect x="9" y="30" width="6" height="1" fill="#CD853F" />
    <rect x="17" y="30" width="6" height="1" fill="#CD853F" />

    <!-- Hair (visible under hat, facing right) -->
    <rect x="9" y="7" width="2" height="1" fill="#8B4513" />
    <rect x="22" y="7" width="2" height="1" fill="#8B4513" />

    <!-- Face shadow (right side) -->
    <rect x="23" y="9" width="1" height="8" fill="#E6C199" />
    <rect x="8" y="17" width="16" height="1" fill="#E6C199" />
</svg>